<?xml version="1.0" encoding="utf-8"?>
<!-- Generator: Adobe Illustrator 24.0.2, SVG Export Plug-In . SVG Version: 6.00 Build 0)  -->
<svg version="1.1" id="Capa_1" xmlns="http://www.w3.org/2000/svg" xmlns:xlink="http://www.w3.org/1999/xlink" x="0px" y="0px"
	 viewBox="0 0 23.89 19.28" style="enable-background:new 0 0 23.89 19.28;" xml:space="preserve">
<style type="text/css">
	.st0{fill:#C5B064;}
	.st1{fill:#FFFFFF;stroke:#C5B064;stroke-miterlimit:10;}
</style>
<path class="st0" d="M21.32,6.14H3.14c-0.5,0-0.91-0.45-0.91-1s0.41-1,0.91-1h18.18c0.5,0,0.91,0.45,0.91,1S21.82,6.14,21.32,6.14z"
	/>
<circle class="st1" cx="7.43" cy="4.74" r="2.4"/>
<path class="st0" d="M21.32,11.44H3.14c-0.5,0-0.91-0.45-0.91-1s0.41-1,0.91-1h18.18c0.5,0,0.91,0.45,0.91,1
	S21.82,11.44,21.32,11.44z"/>
<circle class="st1" cx="16.83" cy="10.54" r="2.4"/>
<path class="st0" d="M21.32,16.74H3.14c-0.5,0-0.91-0.45-0.91-1s0.41-1,0.91-1h18.18c0.5,0,0.91,0.45,0.91,1
	S21.82,16.74,21.32,16.74z"/>
<circle class="st1" cx="10.63" cy="15.34" r="2.4"/>
</svg>
